<svg height="512pt" viewBox="0 0 512 512" width="512pt" xmlns="http://www.w3.org/2000/svg"><path d="m512 256c0 141.386719-114.613281 256-256 256s-256-114.613281-256-256 114.613281-256 256-256 256 114.613281 256 256zm0 0" fill="#ffd400"/><path d="m512 256c0-9.691406-.558594-19.253906-1.605469-28.664062l-146.398437-146.402344-215.992188 350.128906 79.332032 79.332031c9.410156 1.046875 18.972656 1.605469 28.664062 1.605469 141.386719 0 256-114.613281 256-256zm0 0" fill="#fdba12"/><path d="m148.003906 80.9375h215.988282v350.128906h-215.988282zm0 0" fill="#414952"/><path d="m255.214844 80.933594h108.777344v350.128906h-108.777344zm0 0" fill="#333940"/><path d="m163.332031 104h185.332031v304h-185.332031zm0 0" fill="#4a7aff"/><path d="m255.214844 104h93.449218v304h-93.449218zm0 0" fill="#2864f0"/><path d="m413.023438 148h-172.046876c-17.660156 0-31.976562 14.316406-31.976562 31.976562v100.640626c0 17.660156 14.316406 31.976562 31.976562 31.976562h7.960938v38.726562l67.167969-38.726562h96.917969c17.660156 0 31.976562-14.316406 31.976562-31.976562v-100.640626c0-17.660156-14.316406-31.976562-31.976562-31.976562zm0 0" fill="#fe6a16"/><path d="m413.023438 148h-86.378907v164.59375h86.378907c17.660156 0 31.976562-14.316406 31.976562-31.976562v-100.640626c0-17.660156-14.316406-31.976562-31.976562-31.976562zm0 0" fill="#f24500"/><path d="m286.214844 230.605469c0 14.144531-11.464844 25.609375-25.605469 25.609375-14.144531 0-25.605469-11.464844-25.605469-25.609375 0-14.140625 11.460938-25.605469 25.605469-25.605469 14.140625 0 25.605469 11.464844 25.605469 25.605469zm0 0" fill="#fff"/><path d="m352.605469 230.605469c0 14.144531-11.464844 25.609375-25.605469 25.609375s-25.605469-11.464844-25.605469-25.609375c0-14.140625 11.464844-25.605469 25.605469-25.605469s25.605469 11.464844 25.605469 25.605469zm0 0" fill="#fff"/><g fill="#e9edf5"><path d="m327 205c-.121094 0-.238281.007812-.355469.007812v51.195313c.117188.003906.234375.011719.355469.011719 14.140625 0 25.605469-11.464844 25.605469-25.609375 0-14.140625-11.464844-25.605469-25.605469-25.605469zm0 0"/><path d="m418.996094 230.605469c0 14.144531-11.460938 25.609375-25.605469 25.609375-14.140625 0-25.605469-11.464844-25.605469-25.609375 0-14.140625 11.464844-25.605469 25.605469-25.605469 14.144531 0 25.605469 11.464844 25.605469 25.605469zm0 0"/></g></svg>